<svg width="36" height="36" viewBox="0 0 36 36" fill="none" xmlns="http://www.w3.org/2000/svg">
<path id="chip-ai" fill-rule="evenodd" clip-rule="evenodd" d="M8.87588 0.0493554C8.82673 0.0691802 8.73969 0.175827 8.68253 0.28641C8.59583 0.454077 8.57791 0.975428 8.57474 3.42597L8.57088 6.36455L8.24344 6.57545C7.3939 7.12253 7.33195 8.40208 8.12343 9.0544C8.82835 9.63536 9.91892 9.48457 10.4392 8.73418C10.7195 8.32974 10.7761 7.6216 10.5615 7.20113C10.3972 6.87901 10.1037 6.56905 9.82801 6.42648L9.63318 6.32581V3.31694V0.308062L9.47048 0.155158C9.31707 0.0111118 9.0771 -0.0315608 8.87588 0.0493554ZM12.7875 0.198674C12.0135 0.601779 11.7343 1.50353 12.1348 2.30707C12.2654 2.56908 12.4129 2.73372 12.6621 2.89506L13.008 3.11925V4.02128V4.92338H12.0332C11.1534 4.92338 11.0403 4.93758 10.8731 5.06912C10.6309 5.25956 10.6255 5.5705 10.8604 5.80531L11.033 5.97789H13.5283C16.0169 5.97789 16.024 5.97747 16.1996 5.81972C16.4539 5.59124 16.4708 5.29246 16.2423 5.06398C16.1146 4.93632 16.0079 4.92338 15.0822 4.92338H14.0627V3.98283V3.04234L14.275 2.9544C14.7321 2.76508 15.0715 2.18095 15.0711 1.58409C15.0708 0.903229 14.7649 0.435307 14.133 0.148831C13.6811 -0.0560255 13.2457 -0.0398563 12.7875 0.198674ZM17.6985 0.102151C17.6294 0.154525 17.5424 0.303633 17.5052 0.433339C17.4669 0.56691 17.4373 1.90473 17.437 3.51687L17.4365 6.36455L17.1692 6.51703C17.0223 6.60097 16.809 6.80386 16.6952 6.96801C16.5071 7.23937 16.4883 7.31902 16.4883 7.84635C16.4883 8.37656 16.5065 8.45248 16.6997 8.73116C16.9695 9.12034 17.538 9.42264 18 9.42264C18.462 9.42264 19.0305 9.12034 19.3003 8.73116C19.4935 8.45248 19.5117 8.37656 19.5117 7.84635C19.5117 7.31902 19.4929 7.23937 19.3048 6.96801C19.191 6.80386 18.9777 6.60097 18.8308 6.51703L18.5635 6.36455L18.563 3.51687C18.5627 1.90473 18.5331 0.56691 18.4948 0.433339C18.3816 0.0386697 17.9945 -0.122319 17.6985 0.102151ZM21.9292 0.0993393C21.5137 0.247815 21.2573 0.47341 21.0645 0.860205C20.6704 1.65116 20.9711 2.59952 21.7425 2.99847L21.9373 3.09915V4.0113V4.92338H20.8949C19.8962 4.92338 19.8461 4.9302 19.6997 5.08606C19.4969 5.30195 19.5048 5.59075 19.7194 5.80531L19.892 5.97789H22.3878C24.0931 5.97789 24.9389 5.95273 25.058 5.89845C25.4148 5.73599 25.4465 5.17843 25.1093 4.99797C25.03 4.95551 24.5436 4.92338 23.9809 4.92338H22.992V3.97903C22.992 3.09563 23.001 3.03187 23.1329 2.98997C23.369 2.9151 23.693 2.60177 23.8507 2.29582C24.0526 1.90438 24.0543 1.26661 23.8545 0.881084C23.4888 0.175405 22.6591 -0.161477 21.9292 0.0993393ZM26.5394 0.174913L26.3668 0.347431V3.3736C26.3668 6.05797 26.3545 6.3997 26.258 6.3997C26.0714 6.3997 25.4709 7.06116 25.3887 7.35713C25.1602 8.18 25.544 8.99345 26.3118 9.3136C27.2893 9.72127 28.4761 8.91373 28.4761 7.84087C28.4761 7.31284 28.0699 6.65124 27.6352 6.47119L27.4215 6.38262V3.36502V0.347431L27.2489 0.174913C27.0289 -0.0450586 26.7594 -0.0450586 26.5394 0.174913ZM13.7764 1.12447C13.8459 1.16166 13.9412 1.28496 13.9883 1.39843C14.0586 1.5682 14.0545 1.64195 13.9654 1.8144C13.7928 2.14791 13.4984 2.20562 13.1933 1.96562C12.716 1.59028 13.2385 0.836654 13.7764 1.12447ZM22.7873 1.18837C23.1347 1.46964 22.9115 2.11135 22.4663 2.11135C21.989 2.11135 21.7547 1.49186 22.1226 1.20257C22.3524 1.02176 22.5757 1.01698 22.7873 1.18837ZM5.88042 5.02665C5.52521 5.15327 5.15313 5.5118 4.96632 5.90759C4.82156 6.21432 4.81635 6.32722 4.79568 9.61596L4.77438 13.008H3.94866H3.12288L2.88017 12.6422C2.53151 12.1169 2.16041 11.9354 1.4993 11.9669C0.857441 11.9974 0.48923 12.2298 0.197165 12.7887C-0.0657217 13.2919 -0.0657217 13.7083 0.197165 14.2115C0.48923 14.7703 0.857441 15.0028 1.4993 15.0333C2.14523 15.0641 2.53615 14.8795 2.84832 14.3965L3.05925 14.0702L3.91393 14.0663L4.76861 14.0625L4.7928 15.088C4.81692 16.1119 4.81734 16.1139 5.01427 16.2832C5.25551 16.4905 5.41005 16.4967 5.64938 16.3085L5.83282 16.1642L5.85222 11.2407L5.87163 6.31717L6.06891 6.14753C6.23674 6.0032 6.33954 5.97789 6.7576 5.97789C7.18564 5.97789 7.27135 5.95561 7.4216 5.80531C7.6416 5.5854 7.6416 5.31587 7.4216 5.09597C7.2672 4.94152 7.19133 4.92373 6.70093 4.92647C6.39951 4.92816 6.03024 4.97323 5.88042 5.02665ZM28.63 5.06673C28.4069 5.27453 28.422 5.64397 28.6614 5.83216C28.8043 5.94464 28.9479 5.97789 29.2902 5.97789C29.6578 5.97789 29.7677 6.007 29.9311 6.14753L30.1284 6.31717L30.1478 11.2407L30.1672 16.1642L30.3506 16.3085C30.59 16.4967 30.7445 16.4905 30.9857 16.2832C31.1827 16.1139 31.1831 16.1119 31.2072 15.088L31.2314 14.0625L32.0861 14.0663L32.9407 14.0702L33.1517 14.3965C33.4639 14.8795 33.8548 15.0641 34.5007 15.0333C35.1426 15.0028 35.5108 14.7703 35.8028 14.2115C36.0657 13.7083 36.0657 13.2919 35.8028 12.7887C35.5108 12.2298 35.1426 11.9974 34.5007 11.9669C33.8396 11.9354 33.4685 12.1169 33.1198 12.6422L32.8771 13.008H32.0513H31.2256L31.2043 9.61596C31.1838 6.3469 31.1777 6.21249 31.0361 5.90759C30.8529 5.51328 30.3991 5.09695 30.0455 4.99874C29.8977 4.95776 29.5534 4.92401 29.2804 4.9238C28.8775 4.92345 28.7548 4.95045 28.63 5.06673ZM9.44791 7.45934C9.68725 7.64754 9.70236 8.01697 9.47927 8.22478C9.21259 8.47322 8.84768 8.40341 8.67585 8.07117C8.49825 7.72775 8.74496 7.33533 9.1491 7.31839C9.21153 7.31572 9.34604 7.3792 9.44791 7.45934ZM18.3069 7.45934C18.6784 7.75151 18.4702 8.36812 18 8.36812C17.5298 8.36812 17.3216 7.75151 17.6931 7.45934C17.795 7.3792 17.9331 7.31361 18 7.31361C18.0669 7.31361 18.205 7.3792 18.3069 7.45934ZM27.2489 7.4862C27.3438 7.5811 27.4215 7.74069 27.4215 7.84087C27.4215 8.07525 27.1286 8.36812 26.8941 8.36812C26.6597 8.36812 26.3668 8.07525 26.3668 7.84087C26.3668 7.60648 26.6597 7.31361 26.8941 7.31361C26.9943 7.31361 27.1539 7.39129 27.2489 7.4862ZM12.3578 11.0451C12.2902 11.0845 12.1992 11.2585 12.1555 11.4319C12.0705 11.7697 11.8812 11.9535 11.6182 11.9535C11.5283 11.9535 11.3772 12.0311 11.2823 12.1261C11.1168 12.2915 11.1097 12.336 11.1097 13.2111C11.1097 13.713 11.1386 14.1999 11.1741 14.293C11.3102 14.651 11.909 14.6894 12.0897 14.3517C12.1308 14.275 12.1643 13.9308 12.1643 13.5868V12.9612L12.4256 12.7913C12.5693 12.6978 12.7829 12.4888 12.9002 12.3268L13.1135 12.0323L18.0352 12.0297L22.9568 12.0269L23.0666 12.2539C23.127 12.3786 23.323 12.5756 23.5022 12.6916L23.828 12.9025L23.8303 18.1048L23.8325 23.307L23.6056 23.4174C23.4808 23.4782 23.268 23.6759 23.1327 23.8568L22.8868 24.1858H17.9826C14.7694 24.1858 13.0783 24.1616 13.0783 24.1157C13.0783 24.0025 12.579 23.4827 12.3629 23.371L12.1643 23.2683V19.8025V16.3367L12.0016 16.1837C11.7714 15.9675 11.4397 15.9818 11.2554 16.2162C11.1121 16.3983 11.1097 16.464 11.1097 20.1562V23.911L11.2823 24.0835C11.3772 24.1784 11.5283 24.2561 11.6182 24.2561C11.8705 24.2561 12.0837 24.4462 12.1344 24.7163C12.1604 24.8547 12.2576 25.0223 12.3576 25.101C12.5309 25.2372 12.6575 25.2403 18.0478 25.2403H23.5608L23.7334 25.0677C23.8283 24.9728 23.906 24.8146 23.906 24.7162C23.906 24.4866 24.1365 24.2561 24.3662 24.2561C24.4646 24.2561 24.6228 24.1784 24.7177 24.0835L24.8903 23.911V18.1236C24.8903 11.6733 24.9239 12.0951 24.3987 11.9536C24.0604 11.8625 23.906 11.7167 23.906 11.4883C23.906 11.3926 23.8283 11.2367 23.7334 11.1418L23.5608 10.9693L18.0207 10.9714C14.3931 10.9728 12.4383 10.9982 12.3578 11.0451ZM1.96671 13.1619C2.12863 13.3356 2.14755 13.5085 2.02922 13.7332C1.91961 13.9414 1.83305 13.9899 1.56792 13.9911C1.42519 13.9918 1.28942 13.9356 1.19879 13.8383C0.892806 13.5099 1.12497 13.008 1.58275 13.008C1.73975 13.008 1.8732 13.0615 1.96671 13.1619ZM34.8012 13.1619C35.1072 13.4902 34.875 13.9922 34.4172 13.9922C34.2602 13.9922 34.1268 13.9387 34.0333 13.8383C33.7273 13.5099 33.9595 13.008 34.4172 13.008C34.5742 13.008 34.7077 13.0615 34.8012 13.1619ZM14.5548 14.1328C14.4177 14.2699 14.4142 14.3671 14.4142 18.1048C14.4142 21.8425 14.4177 21.9396 14.5548 22.0768C14.7325 22.2544 15.0525 22.2572 15.2677 22.0831C15.4324 21.9498 15.4338 21.9361 15.4559 20.2904L15.4782 18.632H16.4578H17.4375L17.4415 20.1259C17.4441 21.0898 17.4752 21.7066 17.5293 21.8644C17.6294 22.1559 17.8958 22.2811 18.1934 22.1766C18.5586 22.0483 18.5703 21.9077 18.5479 17.9083L18.5273 14.2609L18.3613 14.1265C18.2078 14.0023 18.0634 13.9922 16.4454 13.9922C14.7892 13.9922 14.6879 13.9997 14.5548 14.1328ZM20.7002 14.1402C20.572 14.2819 20.5663 14.4505 20.5663 18.1184V21.9486L20.7323 22.083C20.9475 22.2572 21.2675 22.2544 21.4452 22.0768C21.5823 21.9396 21.5858 21.8425 21.5858 18.1048C21.5858 14.3671 21.5823 14.2699 21.4452 14.1328C21.2556 13.9433 20.875 13.9471 20.7002 14.1402ZM17.4375 16.3121V17.5775H16.4532H15.4689V16.3121V15.0467H16.4532H17.4375V16.3121ZM7.47018 16.4486C7.11378 16.5372 6.70114 16.8452 6.52445 17.1545L6.36379 17.4359L3.42486 17.4364C0.983857 17.4369 0.452248 17.4544 0.287091 17.5398C-0.0358402 17.7067 -0.0904706 18.005 0.146542 18.3062L0.292223 18.4914H3.30864H6.32505L6.4263 18.6848C6.84295 19.4801 7.85407 19.7786 8.62804 19.3348C9.9379 18.5837 9.52054 16.6072 8.01445 16.4288C7.84127 16.4084 7.59639 16.4172 7.47018 16.4486ZM27.8082 16.4455C26.7492 16.7165 26.2672 17.8644 26.8179 18.8041C27.1886 19.4365 28.0576 19.7223 28.742 19.4369C29.0439 19.3111 29.4272 18.9644 29.5737 18.6848L29.6749 18.4914H32.6914H35.7078L35.8535 18.3062C36.0905 18.005 36.0358 17.7067 35.7129 17.5398C35.5479 17.4544 35.0138 17.4366 32.5751 17.4347L29.6362 17.4325L29.45 17.1255C29.1358 16.6075 28.3872 16.2974 27.8082 16.4455ZM8.24457 17.6586C8.52187 17.9863 8.27227 18.4914 7.83312 18.4914C7.6011 18.4914 7.31297 18.2349 7.31297 18.0283C7.31297 17.5276 7.9274 17.2838 8.24457 17.6586ZM28.3596 17.515C28.5267 17.5912 28.687 17.8424 28.687 18.0283C28.687 18.2299 28.3989 18.4914 28.1767 18.4914C27.6167 18.4914 27.4261 17.7131 27.9358 17.5077C28.1421 17.4246 28.1619 17.4249 28.3596 17.515ZM5.01427 19.7155C4.81734 19.8848 4.81692 19.8868 4.7928 20.9106L4.76861 21.9362H3.93819H3.10776L2.92974 21.6325C2.83187 21.4654 2.61799 21.2361 2.45452 21.1228C2.18446 20.9357 2.1041 20.9168 1.57727 20.9168C1.04566 20.9168 0.972045 20.9345 0.695448 21.1289C0.304528 21.4037 0.000509749 21.9686 0.00149408 22.4187C0.0024081 22.8534 0.269514 23.4125 0.594765 23.6605C1.3366 24.2263 2.46232 24.037 2.89859 23.2731L3.05925 22.9917L3.91688 22.9913L4.77459 22.9907L4.79575 26.4882C4.81516 29.6798 4.82809 30.0102 4.94375 30.2668C5.24735 30.9402 5.84111 31.2844 6.70093 31.2855C7.18965 31.2861 7.26776 31.2675 7.4216 31.1136C7.6416 30.8937 7.6416 30.6242 7.4216 30.4043C7.27317 30.2559 7.18402 30.2317 6.78424 30.2317C6.5286 30.2317 6.25552 30.1975 6.17747 30.1558C5.83907 29.9747 5.83647 29.9331 5.83647 24.7204V19.8373L5.65121 19.6917C5.41005 19.502 5.25593 19.5078 5.01427 19.7155ZM30.3488 19.6917L30.1635 19.8373V22.747C30.1635 25.6497 30.1639 25.657 30.3174 25.8C30.5988 26.0621 30.9991 25.948 31.1451 25.5639C31.1853 25.4583 31.2182 24.836 31.2182 24.1812V22.9907L32.0795 22.9913L32.9407 22.9917L33.1014 23.2731C33.534 24.0304 34.6633 24.2264 35.3922 23.6704C35.5267 23.5679 35.7222 23.3094 35.8266 23.0959C35.9814 22.7797 36.0107 22.6384 35.9854 22.3322C35.9455 21.852 35.6631 21.3622 35.2798 21.1086C35.0237 20.9391 34.9233 20.9168 34.4164 20.9168C33.8966 20.9168 33.8148 20.9362 33.5455 21.1228C33.382 21.2361 33.1681 21.4654 33.0703 21.6325L32.8922 21.9362H32.0618H31.2314L31.2072 20.9106C31.1831 19.8868 31.1827 19.8848 30.9857 19.7155C30.7441 19.5078 30.59 19.502 30.3488 19.6917ZM1.96432 22.1214C2.20893 22.4324 2.11689 22.7708 1.74974 22.9103C1.54141 22.9896 1.1699 22.8556 1.10113 22.6764C0.880994 22.1029 1.59077 21.6465 1.96432 22.1214ZM34.8012 22.0901C35.1601 22.4752 34.7423 23.094 34.2479 22.9096C33.8842 22.7738 33.7919 22.4312 34.0357 22.1214C34.2239 21.8821 34.5934 21.867 34.8012 22.0901ZM8.59534 26.6699C7.40732 27.1007 7.19661 28.749 8.24344 29.4232L8.57088 29.6341L8.57474 32.5727C8.57791 35.0088 8.59612 35.5452 8.6814 35.7101C8.84839 36.033 9.14664 36.0876 9.44791 35.8506L9.63318 35.7049V32.6889V29.6729L9.82801 29.5722C10.1037 29.4296 10.3972 29.1197 10.5615 28.7975C10.7761 28.3771 10.7195 27.6689 10.4392 27.2645C10.0477 26.6998 9.2353 26.4378 8.59534 26.6699ZM17.2924 26.7694C17.0426 26.896 16.8381 27.0679 16.6997 27.2675C16.5065 27.5462 16.4883 27.6221 16.4883 28.1523C16.4883 28.6702 16.509 28.762 16.6813 29.0106C16.7874 29.1637 17.0001 29.3666 17.154 29.4615L17.4337 29.6341L17.4356 32.4818C17.4367 34.0894 17.467 35.4321 17.5052 35.5653C17.6714 36.1449 18.3286 36.1449 18.4948 35.5653C18.5331 35.4318 18.5627 34.0939 18.563 32.4818L18.5635 29.6341L18.8308 29.4816C18.9777 29.3977 19.191 29.1948 19.3048 29.0307C19.4929 28.7593 19.5117 28.6796 19.5117 28.1523C19.5117 27.6221 19.4935 27.5462 19.3003 27.2675C19.0305 26.8783 18.462 26.576 18 26.576C17.7833 26.576 17.5456 26.641 17.2924 26.7694ZM26.2614 26.7096C25.5147 27.056 25.164 27.8324 25.3887 28.6415C25.4709 28.9375 26.0714 29.599 26.258 29.599C26.3545 29.599 26.3668 29.9407 26.3668 32.6251V35.6512L26.5394 35.8238C26.6343 35.9187 26.7939 35.9963 26.8941 35.9963C26.9943 35.9963 27.1539 35.9187 27.2489 35.8238L27.4215 35.6512V32.6336V29.6161L27.6352 29.5275C27.7528 29.4788 27.9534 29.3171 28.081 29.168C28.6354 28.5203 28.5977 27.6892 27.9853 27.0581C27.5157 26.5742 26.8453 26.4387 26.2614 26.7096ZM30.3174 27.4927C30.1733 27.627 30.1635 27.6983 30.1635 28.6198C30.1635 30.0552 30.0614 30.2317 29.2312 30.2317C28.8524 30.2317 28.7578 30.2572 28.629 30.3944C28.4127 30.6246 28.427 30.9562 28.6614 31.1405C28.8096 31.2571 28.9465 31.286 29.3469 31.2855C30.1583 31.2844 30.7721 30.917 31.0494 30.2668C31.1806 29.959 31.275 28.3426 31.1887 27.8824C31.0981 27.3992 30.6385 27.1936 30.3174 27.4927ZM9.47927 27.7739C9.70236 27.9817 9.68725 28.3511 9.44791 28.5393C9.236 28.706 9.14706 28.7168 8.90302 28.6056C8.63978 28.4858 8.54099 28.1883 8.67697 27.9253C8.84684 27.5969 9.2147 27.5274 9.47927 27.7739ZM18.3515 27.7711C18.5609 27.9805 18.5391 28.3568 18.3069 28.5393C18.205 28.6195 18.0669 28.6851 18 28.6851C17.9331 28.6851 17.795 28.6195 17.6931 28.5393C17.3216 28.2472 17.5298 27.6305 18 27.6305C18.1172 27.6305 18.2734 27.693 18.3515 27.7711ZM27.2489 27.8031C27.3438 27.898 27.4215 28.0576 27.4215 28.1578C27.4215 28.258 27.3438 28.4176 27.2489 28.5125C27.1539 28.6074 26.9943 28.6851 26.8941 28.6851C26.7939 28.6851 26.6343 28.6074 26.5394 28.5125C26.4445 28.4176 26.3668 28.258 26.3668 28.1578C26.3668 28.0576 26.4445 27.898 26.5394 27.8031C26.6343 27.7082 26.7939 27.6305 26.8941 27.6305C26.9943 27.6305 27.1539 27.7082 27.2489 27.8031ZM10.8604 30.4043C10.7655 30.4992 10.6878 30.6588 10.6878 30.7589C10.6878 30.8591 10.7655 31.0187 10.8604 31.1136C11.0273 31.2805 11.0657 31.2862 12.0205 31.2862H13.008V32.0828V32.8794L12.6621 33.1036C11.6618 33.7516 11.7316 35.2501 12.7875 35.8C13.2879 36.0605 13.698 36.0614 14.2083 35.803C14.839 35.4836 15.1807 34.8247 15.0699 34.142C15.0097 33.7713 14.6442 33.2485 14.3265 33.0789L14.063 32.9383L14.0629 32.1122L14.0627 31.2862H15.0085C16.0463 31.2862 16.2697 31.229 16.3714 30.9376C16.4497 30.713 16.3209 30.3472 16.1388 30.2774C16.0734 30.2522 14.8978 30.2317 13.5264 30.2317H11.033L10.8604 30.4043ZM19.7321 30.3774C19.4899 30.5679 19.4845 30.8788 19.7194 31.1136C19.8868 31.2811 19.9226 31.2862 20.9147 31.2862H21.9373V32.0928V32.8995L21.7425 33.0002C20.9745 33.3973 20.6704 34.3477 21.0608 35.131C21.5236 36.0595 22.7723 36.2716 23.5437 35.5526C24.1794 34.9601 24.1512 33.7914 23.4876 33.2332C23.3701 33.1343 23.2105 33.0333 23.1329 33.0087C23.0022 32.9672 22.992 32.903 22.992 32.1251V31.2862H23.9705C24.5088 31.2862 25.0004 31.2665 25.0629 31.2425C25.2346 31.1767 25.3922 30.8221 25.3408 30.6173C25.245 30.2358 25.2141 30.2317 22.4585 30.2317C19.9941 30.2317 19.9117 30.2361 19.7321 30.3774ZM13.7764 33.955C13.8459 33.9921 13.9412 34.1154 13.9883 34.2289C14.0586 34.3987 14.0545 34.4724 13.9654 34.6449C13.7928 34.9784 13.4984 35.0361 13.1933 34.7961C12.716 34.4208 13.2385 33.6671 13.7764 33.955ZM22.7873 34.0189C23.1347 34.3001 22.9115 34.9418 22.4663 34.9418C21.989 34.9418 21.7547 34.3223 22.1226 34.0331C22.3524 33.8522 22.5757 33.8475 22.7873 34.0189Z" fill="white"/>
</svg>
