<svg width="36" height="34" viewBox="0 0 36 34" fill="none" xmlns="http://www.w3.org/2000/svg">
<path id="game-turn" opacity=".85" fill-rule="evenodd" clip-rule="evenodd" d="M4.05262 0.217432C3.85704 0.433005 3.85543 0.448504 3.85543 2.12561C3.85543 3.80272 3.85704 3.81822 4.05262 4.03379C4.2425 4.24325 4.28965 4.25122 5.33776 4.25122H6.42572V6.37683V8.50244H4.63535C2.69672 8.50244 2.20692 8.57994 1.57912 8.98628C1.19093 9.23746 0.66065 9.82732 0.416955 10.2788C-0.0068205 11.0643 6.65219e-06 10.8849 6.65219e-06 21.2561C6.65219e-06 31.6278 -0.00682058 31.4481 0.417116 32.2334C0.657517 32.6786 1.10338 33.1787 1.52876 33.48C2.32619 34.0448 1.32708 34.0144 18.1987 33.9888L33.5342 33.9655L33.9922 33.7614C34.8559 33.3766 35.6211 32.4088 35.8595 31.3997C36.0449 30.6149 36.0478 11.9095 35.8626 11.1258C35.6981 10.4295 35.4128 9.92067 34.8931 9.39697C34.1303 8.62821 33.8631 8.55824 31.5462 8.52086L29.5583 8.4888V7.78709V7.08537H30.6462C31.6943 7.08537 31.7415 7.0774 31.9314 6.86794C32.1269 6.65236 32.1286 6.63686 32.1286 4.95976C32.1286 3.28265 32.1269 3.26715 31.9314 3.05158L31.7343 2.83415H26.988H22.2417L22.0446 3.05158C21.849 3.26715 21.8474 3.28265 21.8474 4.95976C21.8474 6.63686 21.849 6.65236 22.0446 6.86794C22.2345 7.0774 22.2816 7.08537 23.3297 7.08537H24.4177V7.79391V8.50244H17.992H11.5663V6.37683V4.25122H12.6542C13.7023 4.25122 13.7495 4.24325 13.9394 4.03379C14.135 3.81822 14.1366 3.80272 14.1366 2.12561C14.1366 0.448504 14.135 0.433005 13.9394 0.217432L13.7423 0H8.996H4.24973L4.05262 0.217432ZM12.8514 2.12561V2.83415H8.996H5.14057V2.12561V1.41707H8.996H12.8514V2.12561ZM10.2811 6.37683V8.50244H8.996H7.71086V6.37683V4.25122H8.996H10.2811V6.37683ZM30.8434 4.95976V5.66829H26.988H23.1326V4.95976V4.25122H26.988H30.8434V4.95976ZM28.2731 7.79391V8.50244H26.988H25.7028V7.79391V7.08537H26.988H28.2731V7.79391ZM33.5342 10.1306C34.0168 10.3822 34.312 10.7128 34.5317 11.248C34.6926 11.6398 34.6953 11.7877 34.6971 19.994L34.6988 28.3415H17.992H1.28515L1.28692 19.994C1.28868 11.7877 1.29141 11.6398 1.4523 11.248C1.67198 10.7128 1.96716 10.3822 2.44981 10.1306L2.85141 9.92129H17.992H33.1326L33.5342 10.1306ZM8.56708 11.4233C7.08363 11.721 5.87808 12.3983 4.79021 13.5454C1.83447 16.662 1.83447 21.5989 4.79021 24.7156C5.70893 25.6844 6.53977 26.2177 7.76732 26.6269C8.37238 26.8286 8.62973 26.8636 9.55825 26.8713C10.825 26.8816 11.4807 26.7353 12.5039 26.2139C13.3398 25.7881 13.7987 25.4413 14.4869 24.7156C15.4449 23.7054 16.0432 22.6261 16.4386 21.1938C16.6294 20.5024 16.6537 20.2701 16.6537 19.1305C16.6537 17.9912 16.6294 17.7585 16.4387 17.0679C15.6898 14.3555 13.7947 12.2998 11.3897 11.5913C10.7222 11.3947 9.17038 11.3023 8.56708 11.4233ZM25.2739 11.4233C23.7905 11.721 22.5849 12.3983 21.4971 13.5454C18.5413 16.662 18.5413 21.5989 21.4971 24.7156C22.4158 25.6844 23.2466 26.2177 24.4742 26.6269C25.0792 26.8286 25.3366 26.8636 26.2651 26.8713C27.5318 26.8816 28.1875 26.7353 29.2107 26.2139C30.0466 25.7881 30.5056 25.4413 31.1938 24.7156C32.1518 23.7054 32.75 22.6261 33.1454 21.1938C33.3363 20.5024 33.3605 20.2701 33.3605 19.1305C33.3605 17.9912 33.3363 17.7585 33.1456 17.0679C32.3967 14.3555 30.5016 12.2998 28.0966 11.5913C27.429 11.3947 25.8772 11.3023 25.2739 11.4233ZM11.3655 13.0566C13.2175 13.7117 14.5309 15.1572 15.1543 17.2263C15.3393 17.8403 15.3686 18.0884 15.3742 19.0862C15.3815 20.3943 15.2387 21.0667 14.7157 22.1861C14.3169 23.0396 13.1837 24.2891 12.4097 24.7288C11.4175 25.2925 10.7809 25.4606 9.63857 25.4606C8.49624 25.4606 7.85961 25.2925 6.86748 24.7288C6.09343 24.2891 4.96025 23.0396 4.56146 22.1861C4.05029 21.0921 3.89784 20.3901 3.89784 19.1305C3.89784 17.8709 4.05029 17.1689 4.56146 16.0749C4.96194 15.2178 6.09463 13.9702 6.86748 13.5349C7.95656 12.9217 8.66564 12.7476 9.87953 12.7958C10.5 12.8204 10.8927 12.8893 11.3655 13.0566ZM28.0723 13.0566C29.9244 13.7117 31.2378 15.1572 31.8612 17.2263C32.0461 17.8403 32.0755 18.0884 32.0811 19.0862C32.0884 20.3943 31.9456 21.0667 31.4225 22.1861C31.0237 23.0396 29.8906 24.2891 29.1165 24.7288C28.1244 25.2925 27.4877 25.4606 26.3454 25.4606C25.2031 25.4606 24.5665 25.2925 23.5743 24.7288C22.8003 24.2891 21.6671 23.0396 21.2683 22.1861C20.7571 21.0921 20.6047 20.3901 20.6047 19.1305C20.6047 17.8709 20.7571 17.1689 21.2683 16.0749C21.6688 15.2178 22.8015 13.9702 23.5743 13.5349C24.6634 12.9217 25.3725 12.7476 26.5864 12.7958C27.2069 12.8204 27.5995 12.8893 28.0723 13.0566ZM9.19319 14.3882C8.996 14.6055 8.996 14.6058 8.996 16.5138V18.422H7.26548C5.53511 18.422 5.53487 18.422 5.33776 18.6394C5.07688 18.927 5.07688 19.334 5.33776 19.6216L5.53487 19.839H7.71086H9.88684L10.084 19.6216L10.2811 19.4043V17.0049V14.6055L10.084 14.3882C9.95969 14.2511 9.79504 14.1707 9.63857 14.1707C9.4821 14.1707 9.31744 14.2511 9.19319 14.3882ZM25.9 14.3882L25.7028 14.6055V17.0049V19.4043L25.9 19.6216L26.0971 19.839H28.2731H30.4491L30.6462 19.6216C30.9071 19.334 30.9071 18.927 30.6462 18.6394C30.4491 18.422 30.4489 18.422 28.7185 18.422H26.988V16.5138C26.988 14.6058 26.988 14.6055 26.7908 14.3882C26.6665 14.2511 26.5019 14.1707 26.3454 14.1707C26.1889 14.1707 26.0243 14.2511 25.9 14.3882ZM34.6971 30.3121C34.694 31.2671 34.2888 31.9882 33.5342 32.3816L33.1326 32.5909H17.992H2.85141L2.44981 32.3816C1.69519 31.9882 1.28997 31.2671 1.28692 30.3121L1.28515 29.7585H17.992H34.6988L34.6971 30.3121Z" fill="white"/>
</svg>
