<svg width="34" height="36" viewBox="0 0 34 36" fill="none" xmlns="http://www.w3.org/2000/svg">
<path id=" human-player-right" fill-rule="evenodd" clip-rule="evenodd" d="M13.4783 0.084806C11.4235 0.298205 9.0846 1.03096 7.30627 2.01842C5.59107 2.97075 3.76636 4.51336 2.6529 5.95246C1.13124 7.91896 0.133853 10.5029 0.022879 12.766C-0.0204258 13.6491 -0.0176739 13.6684 0.169873 13.7891C0.416427 13.9479 0.668081 13.9454 0.883148 13.782C1.03095 13.6697 1.06551 13.5266 1.13383 12.7437C1.3026 10.8114 1.87754 9.11937 2.92374 7.47602C4.83417 4.47519 8.03201 2.29499 11.8157 1.41371C13.7204 0.970099 16.3333 0.921214 18.2596 1.29325C21.0848 1.83887 23.5507 3.05193 25.5361 4.87289C28.5753 7.66025 29.9772 11.4333 29.4133 15.3077C29.18 16.9107 29.3314 17.2505 31.212 19.3441C33.0389 21.378 32.9545 21.2725 32.8701 21.4167C32.8297 21.4858 32.2251 21.7316 31.4789 21.9824C30.753 22.2263 30.094 22.4857 30.0143 22.559C29.881 22.6815 29.8692 22.888 29.8676 25.1291C29.8656 27.8573 29.8411 27.9945 29.292 28.3545L29.0195 28.5332L25.7144 28.5704C22.5613 28.6059 22.404 28.6142 22.2945 28.752C22.2001 28.8709 22.1797 29.413 22.1797 31.8154V34.7343L21.9571 34.7752C20.6202 35.0211 17.7523 35.07 16.2276 34.8731C12.7644 34.4257 9.57666 33.2221 6.86116 31.3366L6.47668 31.0696L6.47635 29.9502C6.47595 28.6509 6.35138 26.9973 6.21045 26.4206C6.082 25.8948 5.79975 25.6744 5.43356 25.8138C5.09311 25.9434 5.03143 26.1783 5.16078 26.8515C5.22335 27.1771 5.28964 28.2937 5.317 29.483L5.36451 31.549L5.73847 31.8345C6.31795 32.277 7.60641 33.076 8.44077 33.5104C11.7969 35.2576 15.5369 36.1018 19.4277 35.9902C21.1801 35.94 22.8485 35.7445 23.0959 35.5604C23.2712 35.43 23.2726 35.4073 23.2954 32.5248L23.3184 29.6206L26.2498 29.5977C29.1304 29.5752 29.1879 29.5719 29.5595 29.4019C30.0818 29.1632 30.5007 28.7678 30.7508 28.2777L30.9621 27.8635L30.9875 25.5538L31.0128 23.244L32.0802 22.8827C32.6673 22.684 33.2671 22.456 33.4132 22.3761C33.9467 22.0842 34.1758 21.2126 33.8484 20.7204C33.7667 20.5977 33.0528 19.7776 32.2619 18.8979C31.471 18.0184 30.7541 17.1729 30.6689 17.0194C30.45 16.625 30.4037 16.1867 30.5131 15.5456C30.9159 13.1848 30.521 10.5377 29.4274 8.26912C27.8089 4.9118 24.6224 2.18799 20.7898 0.885722C18.5872 0.137337 15.8547 -0.162002 13.4783 0.084806ZM13.5188 4.05144C8.95266 4.76202 5.39948 7.95549 4.47955 12.1756C4.30609 12.9711 4.281 14.9602 4.43495 15.7114C4.87488 17.8584 5.93112 19.7288 7.53437 21.2001C10.8838 24.274 15.8833 25.0433 20.1296 23.1382C23.0746 21.817 25.2259 19.3738 26.03 16.4374C26.3205 15.3767 26.3935 13.5469 26.1906 12.4122C25.4259 8.13563 21.8016 4.79253 17.1304 4.05516C16.2649 3.91855 14.3853 3.91661 13.5188 4.05144ZM17.1208 5.11077C19.5465 5.49627 21.9644 6.91186 23.3847 8.77814L23.8095 9.33619L21.5708 9.37339C18.8116 9.41923 19.0229 9.30762 19.0229 10.719V11.6762L18.8003 11.7834C18.2166 12.0644 17.8076 12.6896 17.8106 13.296C17.8142 14.0249 18.411 14.7089 19.1941 14.8816C20.464 15.1616 21.6308 14.1355 21.3676 12.9702C21.258 12.4846 20.9022 12.0268 20.481 11.8293L20.1562 11.677V11.0461V10.4151H22.288H24.4198L24.6692 11.1034C24.9988 12.0126 25.0683 12.31 25.173 13.2612C25.5698 16.8643 23.3902 20.4846 19.8324 22.1316C19.1916 22.4282 18.0585 22.841 17.8849 22.841C17.8399 22.841 17.8088 22.2381 17.8088 21.3679V19.8947L18.0809 19.8042C18.4524 19.6808 18.931 19.2369 19.123 18.8379C19.4863 18.0828 19.2056 17.0444 18.5134 16.5835C18.07 16.2882 17.4126 16.1176 16.9761 16.1845C15.8943 16.3504 15.1897 17.0974 15.1891 18.079C15.1888 18.8115 15.5413 19.3649 16.2388 19.7267L16.6756 19.9534V21.4995V23.0457L16.4226 23.0922C15.8137 23.2041 13.8668 23.1145 13.2619 22.9466C13.14 22.9128 13.1238 22.6848 13.0991 20.6614C13.0724 18.4747 13.0665 18.4042 12.8805 18.0584C12.7755 17.8628 12.5407 17.5858 12.3589 17.4428C11.7887 16.9941 11.5417 16.9629 8.56964 16.9629H5.9163L5.83528 16.6839C5.60483 15.89 5.50293 15.3728 5.45436 14.7512L5.40077 14.065L9.61324 14.0444C13.6248 14.0248 13.8338 14.0171 13.996 13.8821C14.1561 13.7488 14.1663 13.6663 14.1663 12.5012V11.2622L14.4958 11.1286C16.0588 10.4947 16.095 8.41131 14.5553 7.70593C13.1837 7.07764 11.5787 7.9991 11.5766 9.41595C11.5756 10.1259 12.0808 10.8432 12.7826 11.1278L13.1189 11.2641L13.0962 12.1232L13.0736 12.9821L9.28008 13.0015L5.48649 13.0208L5.54461 12.593C5.70205 11.4352 6.48259 9.73151 7.34545 8.66266C8.70862 6.97392 10.6887 5.74486 12.8712 5.2328C14.2696 4.90474 15.5862 4.86686 17.1208 5.11077ZM14.2958 8.8079C14.5288 9.02204 14.571 9.11327 14.571 9.40196C14.571 9.90101 14.2647 10.1979 13.6981 10.2479C13.3043 10.2827 13.2634 10.2696 12.9947 10.0226C12.7492 9.79692 12.7093 9.7115 12.7093 9.41059C12.7093 9.11207 12.7496 9.02383 12.9845 8.8079C13.2194 8.59197 13.3154 8.55492 13.6402 8.55492C13.9649 8.55492 14.0609 8.59197 14.2958 8.8079ZM20.0814 12.8648C20.2241 12.9959 20.318 13.1607 20.318 13.2798C20.318 13.5606 19.9144 13.9122 19.5921 13.9122C19.237 13.9122 18.942 13.6253 18.942 13.2798C18.942 12.6939 19.625 12.4452 20.0814 12.8648ZM0.705962 16.6665C0.558159 16.7733 0.486848 16.8948 0.486848 17.0397C0.486848 17.3181 1.00473 18.6502 1.18353 18.8319C1.47177 19.1246 2.10815 18.8999 2.10394 18.5068C2.10192 18.3173 1.51119 16.7578 1.40556 16.6631C1.23412 16.5093 0.921191 16.5108 0.705962 16.6665ZM17.7125 17.3369C18.4714 17.7622 18.2494 18.7868 17.3652 18.9393C17.0689 18.9904 16.7311 18.8618 16.4731 18.5996C16.2279 18.3507 16.2494 17.7803 16.5137 17.5188C16.8796 17.1569 17.2823 17.0958 17.7125 17.3369ZM11.6758 18.285L11.9404 18.528L11.9643 20.5732L11.9881 22.6183L11.5595 22.4636C9.59244 21.754 7.73648 20.2325 6.63881 18.4294L6.37647 17.9984L8.8939 18.0201L11.4113 18.0418L11.6758 18.285ZM3.31988 21.1069C3.1282 21.1699 2.9961 21.3638 2.9961 21.5822C2.9961 21.8083 3.79493 23.1058 4.05751 23.3061C4.27647 23.4731 4.46944 23.471 4.70045 23.2991C4.98586 23.0866 4.93608 22.7829 4.50084 22.0825C3.97107 21.2298 3.67935 20.9888 3.31988 21.1069Z" fill="white"/>
</svg>
