<svg width="32" height="36" viewBox="0 0 32 36" fill="none" xmlns="http://www.w3.org/2000/svg">
<path id="human-player" fill-rule="evenodd" clip-rule="evenodd" d="M16.0584 0.0477638C12.9537 0.304477 9.83917 1.44538 7.34203 3.24068C4.19216 5.50533 2.03952 9.13574 1.69495 12.7645C1.59218 13.8467 1.6542 14.4229 2.03886 15.9608C2.17914 16.5215 2.32791 17.295 2.3694 17.6796C2.50769 18.9605 2.29646 19.5483 1.00979 21.4645C0.187237 22.6894 0 23.0865 0 23.6056C0 24.0738 0.202889 24.4101 0.672237 24.7198C0.951394 24.9041 1.56479 25.099 1.88034 25.1037C2.26973 25.1095 2.43644 25.4464 2.43644 26.2276C2.43644 26.9446 2.55228 27.4454 2.77703 27.6997C2.92713 27.8696 2.94898 27.9498 2.90941 28.1856C2.81653 28.7389 3.24593 29.2769 3.98159 29.5289C4.31597 29.6435 4.31907 29.6475 4.31051 29.957C4.25824 31.8543 4.25551 31.8029 4.4279 32.1839C4.73334 32.8586 5.47432 33.3432 6.49039 33.5326C7.51739 33.724 10.3284 33.3447 12.3415 32.743L12.9068 32.574L13.1669 33.1092C13.4878 33.7694 13.6319 34.2334 13.77 35.0508C13.8579 35.5717 13.9105 35.7116 14.0673 35.8418L14.2578 36H22.3415H30.4253L30.6065 35.8274C30.8872 35.5602 30.8513 35.2448 30.4936 34.8326C29.6283 33.8353 27.9443 29.6865 27.728 28.0195C27.6846 27.6846 27.7073 27.6228 28.2043 26.7187C30.2842 22.9354 31.1081 20.8136 31.7948 17.4725C31.9853 16.5455 31.9974 16.3732 31.9999 14.5193C32.0021 12.942 31.9771 12.4177 31.874 11.8826C31.3733 9.28178 30.645 7.48493 29.3232 5.58956C28.6789 4.66572 26.9724 3.02531 26.0065 2.40143C23.3963 0.715387 19.4047 -0.228989 16.0584 0.0477638ZM19.8607 1.40889C21.959 1.76861 23.7775 2.4344 25.285 3.3946C26.2592 4.01518 27.673 5.38474 28.3491 6.36301C29.6175 8.19811 30.4373 10.3946 30.7111 12.6912C30.8086 13.5088 30.8091 15.4802 30.712 16.2438C30.4515 18.2941 29.6506 20.9863 28.6488 23.18C28.4162 23.6894 27.8752 24.7336 27.4467 25.5004C26.5225 27.1539 26.4317 27.3523 26.4317 27.7182C26.4317 28.9539 27.6489 32.3865 28.9258 34.7519C28.9415 34.781 25.8156 34.8047 21.9794 34.8047H15.0046L14.9527 34.4756C14.8836 34.036 14.525 33.0032 14.2853 32.5526C14.1789 32.3526 14.1024 32.1809 14.1153 32.1709C14.1282 32.1609 14.4418 32.0264 14.8122 31.8721C16.2884 31.2571 17.6366 30.4268 18.1516 29.8155C18.4778 29.4281 18.4985 29.0903 18.2103 28.8542C18.0983 28.7625 17.9338 28.6876 17.8447 28.6877C17.6365 28.6881 17.2341 28.9214 17.1125 29.1124C16.9895 29.3058 16.2774 29.8164 15.6239 30.1798C13.6168 31.2962 9.6605 32.3586 7.45699 32.3729C6.61221 32.3784 6.50323 32.364 6.16929 32.2031C5.5841 31.9211 5.51035 31.7745 5.54328 30.9594C5.5926 29.7371 5.56875 29.2982 5.44021 29.0628C5.28191 28.7729 5.00002 28.5666 4.62297 28.4646C4.45588 28.4195 4.29124 28.3596 4.25713 28.3317C4.22302 28.3039 4.34359 28.1837 4.52514 28.0648C4.99914 27.7542 5.08257 27.4394 4.77978 27.1042C4.64393 26.9538 4.52853 26.912 4.16093 26.8803L3.70908 26.8413L3.67836 26.0197C3.65001 25.2635 3.62971 25.1676 3.42342 24.8158C3.13932 24.3313 2.67507 24.0194 2.09047 23.9203C0.992592 23.7341 0.992297 23.7112 2.06632 22.118C2.842 20.9673 3.27768 20.1764 3.48286 19.5467C3.63023 19.0943 3.6526 18.8895 3.64005 18.1053C3.63207 17.6026 3.57795 16.9862 3.51992 16.7357C3.39817 16.2104 3.34206 16.2931 4.18544 15.7546C4.4773 15.5682 4.96842 15.3281 5.27667 15.221C5.78589 15.0441 5.89501 15.0305 6.46743 15.0724C7.09344 15.1183 7.09898 15.1172 7.3142 14.9122C7.78155 14.4672 7.46312 13.994 6.60431 13.8576C5.70851 13.7154 4.59491 14.0361 3.47186 14.7597C3.29008 14.8769 3.11798 14.9498 3.08948 14.9218C3.06091 14.8938 3 14.6069 2.95408 14.2842C2.8135 13.2971 2.98198 12.0044 3.43789 10.572C4.55748 7.05433 7.01459 4.37427 10.6464 2.7094C12.2343 1.98152 13.8789 1.51773 15.6523 1.29779C16.7251 1.16469 18.7479 1.21813 19.8607 1.40889ZM16.5752 2.45367C15.9736 2.6009 15.5543 2.93011 15.2586 3.48748C15.1451 3.70138 15.1185 3.71031 13.9169 3.93728L12.6909 4.16882L12.4919 4.02875C12.0571 3.72254 11.7808 3.63015 11.2962 3.62881C10.5117 3.62656 9.86804 4.03557 9.56348 4.72978C9.4215 5.05329 9.41737 5.74313 9.55551 6.05785L9.6605 6.29727L9.04791 7.07226C8.53242 7.72441 8.39008 7.86019 8.14924 7.92931C7.45035 8.12984 6.92156 8.84752 6.92193 9.59481C6.92208 9.82832 6.97288 10.1345 7.03475 10.2752C7.20124 10.6537 7.64024 11.0802 8.0139 11.2265L8.34297 11.3552L8.83498 12.5297L9.327 13.7042L9.14286 13.9711C8.3093 15.1797 9.04946 16.6555 10.5544 16.7855C10.9079 16.816 11.053 16.792 11.3797 16.6488C11.8179 16.4567 12.1981 16.1232 12.3333 15.8121L12.4216 15.6092H14.1477C15.5475 15.6092 15.8738 15.6271 15.8738 15.7041C15.8738 15.8867 16.3135 16.3748 16.6441 16.5593C16.8621 16.681 17.1419 16.7618 17.4522 16.7926L17.9269 16.8397L18.9403 18.3025L19.9537 19.7653L19.754 20.1146C19.0497 21.347 19.9243 22.7811 21.3803 22.7811C22.1685 22.7811 22.9017 22.2948 23.1428 21.612C23.2169 21.4021 23.406 21.2075 23.9678 20.7629C24.3687 20.4457 24.7508 20.1847 24.8169 20.1828C24.8829 20.181 25.0563 20.227 25.2021 20.285C26.2291 20.6937 27.4733 19.9548 27.6502 18.8311C27.7676 18.0858 27.2279 17.211 26.4985 16.9643C26.1639 16.8511 26.082 16.7734 25.5408 16.0555C25.0534 15.4089 24.9572 15.2387 24.9961 15.0911C25.0572 14.8594 25.1103 14.8239 25.7419 14.5913L26.2704 14.3968L26.5586 14.6174C27.293 15.1794 28.4424 15.0701 29.0809 14.3774C29.4232 14.0061 29.5326 13.7209 29.5326 13.1994C29.5326 12.4255 29.0518 11.7628 28.3245 11.5342C28.1167 11.4689 28.0312 11.3507 27.6205 10.5611L27.1532 9.66245L27.346 9.39175C27.9828 8.49821 27.6525 7.32454 26.6163 6.79839C26.2425 6.60861 25.4011 6.58836 25.0686 6.76119L24.8497 6.87489L24.3116 6.4561C23.8215 6.07473 23.7783 6.02044 23.8279 5.8486C24.0501 5.07874 23.6529 4.23512 22.8797 3.83434C22.2383 3.50183 21.3301 3.58466 20.8436 4.01989L20.6801 4.16622L19.7283 3.94086L18.7766 3.71544L18.6491 3.44016C18.3239 2.73816 17.335 2.26776 16.5752 2.45367ZM17.4058 3.8169C17.7818 4.1447 17.488 4.78096 16.9606 4.78096C16.7088 4.78096 16.4625 4.59913 16.3678 4.34348C16.2884 4.12888 16.4681 3.78849 16.7143 3.6871C16.9806 3.57734 17.1723 3.61334 17.4058 3.8169ZM11.8181 5.1063C12.0461 5.51215 11.7732 5.97629 11.3066 5.97629C10.9488 5.97629 10.7056 5.74861 10.7056 5.41378C10.7056 4.83243 11.5353 4.60314 11.8181 5.1063ZM22.5628 5.17324C22.6189 5.30121 22.6436 5.46307 22.6176 5.53289C22.3746 6.18702 21.4112 6.09188 21.4112 5.41378C21.4112 4.78835 22.3114 4.60033 22.5628 5.17324ZM15.318 5.0561C15.3426 5.13007 15.5074 5.32392 15.684 5.48698L16.0052 5.78349L15.4518 6.65797C15.0847 7.23813 14.8649 7.52029 14.7987 7.49611C14.7439 7.47607 14.2976 7.21549 13.8067 6.91701C13.118 6.49815 12.9262 6.34895 12.9665 6.26316C12.9952 6.20206 13.0689 5.95744 13.1304 5.7195L13.2421 5.28694L14.1334 5.11172C15.2449 4.89325 15.2634 4.89241 15.318 5.0561ZM20.156 5.56538C20.156 6.12598 20.6256 6.77188 21.2266 7.0378C21.5927 7.19988 22.3229 7.21295 22.6969 7.0641L22.9671 6.95659L23.4817 7.35984L23.9963 7.76301L23.9489 8.11767C23.9228 8.31279 23.8905 8.4845 23.8771 8.49919C23.8638 8.51396 23.4017 8.61268 22.8504 8.71857L21.848 8.91116L21.7423 8.71639C21.5858 8.42818 21.072 8.03829 20.6827 7.91229C20.4075 7.82327 20.1277 7.59926 19.2516 6.76675C18.6526 6.19763 18.1626 5.69693 18.1626 5.65404C18.1626 5.61122 18.2324 5.51602 18.3178 5.4424C18.4032 5.36885 18.5184 5.22499 18.574 5.12276L18.6749 4.93692L19.4154 5.11376L20.156 5.29059V5.56538ZM18.7201 8.44245C18.5842 8.58575 18.4508 8.76976 18.4236 8.85132C18.3775 8.98956 18.3224 8.99975 17.6206 8.99975H16.8672L16.7238 8.74627C16.645 8.60677 16.4581 8.39295 16.3085 8.27103L16.0366 8.0494L16.5584 7.21914L17.0803 6.38896L18.0238 7.28545L18.9673 8.18201L18.7201 8.44245ZM12.736 7.68208C13.8072 8.33136 13.7996 8.32411 13.6078 8.52366C13.5234 8.61148 13.4317 8.75457 13.404 8.84155C13.354 8.99835 13.3409 8.99975 11.9628 8.99975H10.5719L10.3812 8.68981C10.2763 8.51937 10.1025 8.31884 9.99495 8.24424L9.79945 8.1086L10.1844 7.61873L10.5694 7.12879L11.2466 7.15938L11.9238 7.18989L12.736 7.68208ZM26.2432 8.01551C26.4652 8.22687 26.4362 8.62646 26.1839 8.83311C25.9216 9.04799 25.6196 9.04588 25.3719 8.82734C24.9306 8.43788 25.2882 7.7403 25.8778 7.84057C25.9994 7.86124 26.1638 7.93999 26.2432 8.01551ZM9.07597 9.10262C9.19093 9.15922 9.30551 9.25668 9.33076 9.31933C9.57832 9.93365 8.88423 10.462 8.38808 10.0369C8.07799 9.77123 8.12207 9.2912 8.47314 9.10979C8.73014 8.97704 8.81881 8.97592 9.07597 9.10262ZM15.5376 9.21083C15.7596 9.42219 15.7306 9.82178 15.4784 10.0284C15.0675 10.365 14.4683 10.1204 14.4734 9.61816C14.4789 9.07351 15.1312 8.82383 15.5376 9.21083ZM20.5806 9.25239C20.9278 9.62252 20.6477 10.1876 20.1146 10.1928C19.68 10.1971 19.3661 9.71125 19.5747 9.35722C19.8024 8.97085 20.2706 8.92206 20.5806 9.25239ZM24.4814 9.72834C24.5442 9.88408 23.4027 12.5302 23.3039 12.458C22.7443 12.0493 21.4112 11.0161 21.4112 10.9912C21.4112 10.9734 21.5108 10.8207 21.6327 10.6521C21.7545 10.4835 21.8542 10.3136 21.8542 10.2745C21.8542 10.2354 21.8944 10.1797 21.9436 10.1508C22.0119 10.1105 24.0869 9.6761 24.3852 9.6396C24.4169 9.63574 24.4603 9.67567 24.4814 9.72834ZM13.5028 10.5449C13.6337 10.7373 13.7727 10.9135 13.8116 10.9364C13.8505 10.9592 13.2455 11.4837 12.4671 12.1018C11.1113 13.1785 11.0397 13.2247 10.7601 13.2045L10.4681 13.1834L10.0585 12.2074L9.64898 11.2314L9.95855 10.9864C10.1289 10.8517 10.3341 10.6185 10.4145 10.4682L10.5609 10.1951H11.9129H13.2648L13.5028 10.5449ZM18.464 10.42C18.5178 10.5437 18.6922 10.7654 18.8516 10.9127L19.1413 11.1804L18.5008 12.1995C17.9245 13.1164 17.8399 13.2185 17.6573 13.2185C17.4658 13.2185 17.4234 13.1524 16.9147 12.0597L16.3752 10.9009L16.5623 10.689C16.6653 10.5724 16.7707 10.4136 16.7965 10.3361C16.8396 10.207 16.9077 10.1951 17.6048 10.1951H18.3661L18.464 10.42ZM26.3937 10.8961L26.7559 11.5971L26.4234 11.9092C26.0738 12.2375 25.8811 12.5859 25.8057 13.0256C25.7678 13.2461 25.7159 13.3073 25.4912 13.3968C24.9876 13.5972 24.9334 13.5904 24.7254 13.3012L24.5325 13.0331L25.1264 11.6141C25.858 9.86601 25.8607 9.86446 26.3937 10.8961ZM15.9351 12.9094L16.2999 13.6902L16.0869 13.9923C15.9697 14.1585 15.8738 14.3213 15.8738 14.3541C15.8738 14.387 15.0992 14.4139 14.1524 14.4139H12.431L12.3027 14.1575C12.232 14.0165 12.201 13.877 12.2336 13.8474C12.2662 13.818 12.9574 13.2672 13.7696 12.6236L15.2462 11.4533L15.4083 11.791C15.4975 11.9767 15.7345 12.48 15.9351 12.9094ZM21.1719 12.3766C21.6283 12.7256 22.0018 13.0281 22.0018 13.0487C22.0018 13.0693 21.9055 13.2029 21.7878 13.3457C21.6701 13.4885 21.553 13.6721 21.5277 13.7538C21.4879 13.8818 21.3463 13.928 20.505 14.0878C19.9679 14.1898 19.4786 14.272 19.4177 14.2703C19.3568 14.2687 19.2336 14.1578 19.1441 14.024L18.9812 13.7806L19.6238 12.7613C19.9772 12.2007 20.2834 11.742 20.3041 11.742C20.3249 11.742 20.7154 12.0276 21.1719 12.3766ZM27.9115 12.656C28.062 12.656 28.2775 12.9762 28.2775 13.1998C28.2775 13.7007 27.6068 13.9816 27.2677 13.6228C27.0542 13.3969 27.0174 13.2531 27.1093 13.0022C27.192 12.7761 27.5566 12.5599 27.7483 12.6234C27.8023 12.6413 27.8758 12.656 27.9115 12.656ZM23.8179 14.1733C23.9948 14.5766 23.7118 14.9764 23.2494 14.9764C22.9132 14.9764 22.6663 14.7244 22.6663 14.3815C22.6663 13.7857 23.5757 13.6214 23.8179 14.1733ZM11.0073 14.504C11.346 14.7516 11.3761 15.1221 11.0804 15.4037C10.8004 15.6704 10.537 15.6704 10.2569 15.4037C10.026 15.1837 9.99207 15.0152 10.1233 14.7408C10.2626 14.4497 10.7534 14.3183 11.0073 14.504ZM18.0292 14.6276C18.2169 14.8064 18.2462 14.8784 18.2082 15.0671C18.1563 15.3247 17.8564 15.6092 17.6367 15.6092C17.0604 15.6092 16.7741 14.9819 17.1759 14.5992C17.4434 14.3445 17.7424 14.3544 18.0292 14.6276ZM21.6517 15.3181C21.8556 15.6467 22.3404 16.0178 22.6805 16.1055C22.8574 16.151 23.2271 16.1719 23.5136 16.1526C24.084 16.1142 24.0125 16.0727 24.486 16.7161L24.7574 17.0847L24.48 17.3413C24.058 17.7316 23.8998 18.1422 23.9426 18.7364C23.968 19.0896 23.951 19.2471 23.8816 19.2989C23.8286 19.3385 23.6015 19.5081 23.3771 19.6756L22.969 19.9803L22.7182 19.7415C22.3823 19.4215 21.9987 19.2582 21.4772 19.2132L21.045 19.1759L20.0338 17.7019L19.0228 16.228L19.2018 15.901C19.3002 15.7212 19.3883 15.5617 19.3974 15.5465C19.4122 15.522 21.2605 15.1417 21.4506 15.1241C21.4926 15.1202 21.5831 15.2075 21.6517 15.3181ZM26.2432 18.2109C26.4652 18.4223 26.4362 18.8219 26.1839 19.0285C25.9216 19.2434 25.6196 19.2413 25.3719 19.0228C24.9306 18.6333 25.2882 17.9357 25.8778 18.036C25.9994 18.0566 26.1638 18.1354 26.2432 18.2109ZM21.8357 20.6431C22.0596 20.8817 22.0486 21.1705 21.8072 21.4005C21.3204 21.864 20.4963 21.3139 20.8298 20.748C21.0576 20.3616 21.5257 20.3128 21.8357 20.6431Z" fill="white"/>
</svg>
