<svg width="36" height="36" viewBox="0 0 36 36" fill="none" xmlns="http://www.w3.org/2000/svg">
<path id="score" opacity=".85" fill-rule="evenodd" clip-rule="evenodd" d="M17.349 0.145927C16.8507 0.418654 16.6224 0.74823 15.9721 2.13359C15.6258 2.87145 15.314 3.49336 15.2793 3.51551C15.2447 3.53774 14.616 3.64466 13.8823 3.75318C13.1486 3.86163 12.3851 4.01294 12.1857 4.08947C11.5861 4.31941 11.1087 4.97973 11.1072 5.5813C11.107 5.66694 11.1598 5.91292 11.2247 6.12792C11.3299 6.47689 11.4651 6.64619 12.4825 7.70292L13.6224 8.88697L13.3846 10.3267C13.2537 11.1186 13.1465 11.8836 13.1463 12.0268C13.1455 12.728 13.6609 13.4545 14.2823 13.6283C14.8447 13.7855 15.1663 13.6855 16.6386 12.8954L18.0079 12.1606L18.7941 12.593C20.4139 13.4838 20.7068 13.6196 21.1133 13.6691C21.8289 13.7563 22.5012 13.3206 22.7417 12.6137C22.8939 12.1663 22.8815 11.9527 22.6091 10.3236L22.3681 8.88202L23.4827 7.73695C24.1701 7.03072 24.6367 6.49124 24.7002 6.3293C24.9942 5.58028 24.904 5.01901 24.4074 4.50468C23.9991 4.08181 23.7425 3.99902 22.059 3.74677C21.3545 3.64124 20.7504 3.53701 20.7163 3.51522C20.6823 3.49336 20.3724 2.87327 20.0277 2.13716C19.3732 0.739557 19.1451 0.413553 18.6319 0.14221C18.2706 -0.0488154 17.7019 -0.047212 17.349 0.145927ZM18.5447 4.40075C19.1727 5.69201 19.2003 5.71431 20.4095 5.9041C20.8816 5.97822 21.3749 6.05898 21.5055 6.08354L21.7431 6.12821L20.9329 6.97948C19.8887 8.07673 19.8972 8.04962 20.1378 9.51704C20.2373 10.1238 20.3187 10.6422 20.3187 10.6691C20.3187 10.6961 19.8561 10.4702 19.2908 10.1672C18.5449 9.76754 18.1903 9.61645 17.9981 9.61645C17.8059 9.61645 17.4513 9.76754 16.7054 10.1672C16.1401 10.4702 15.6775 10.6961 15.6775 10.6691C15.6775 10.6422 15.7589 10.1238 15.8584 9.51704C16.099 8.04962 16.1076 8.07673 15.0633 6.97948L14.2531 6.12821L14.4907 6.08354C14.6213 6.05898 15.1152 5.97808 15.5882 5.90388C16.0861 5.82568 16.5449 5.71103 16.6781 5.63145C16.8612 5.52198 17.0156 5.27556 17.4355 4.42203C17.7256 3.83241 17.9788 3.34985 17.9981 3.34956C18.0174 3.34934 18.2634 3.82235 18.5447 4.40075ZM8.89168 6.92424C8.57763 7.01979 8.18517 7.38865 8.01901 7.74446C7.49055 8.87589 8.44796 10.2217 9.64079 10.024C10.3915 9.8996 10.9619 9.22114 10.9639 8.45033C10.9648 8.09313 10.7214 7.47348 10.5002 7.27C10.1144 6.91513 9.41549 6.76492 8.89168 6.92424ZM25.9091 7.0195C25.4956 7.2208 25.3691 7.35476 25.1761 7.7957C24.7567 8.75418 25.3396 9.85565 26.3554 10.024C27.0031 10.1313 27.6451 9.78263 27.9439 9.16101C28.6147 7.76582 27.2742 6.35495 25.9091 7.0195ZM0.802707 11.3693C0.506519 11.4598 0.153091 11.8391 0.0578782 12.1685C-0.0969663 12.7042 0.146763 13.2971 0.626063 13.5505C0.906147 13.6986 0.978928 13.7003 6.24926 13.681C11.5176 13.6617 11.5913 13.6595 11.7829 13.5112C12.1578 13.2211 12.267 12.9946 12.267 12.5082C12.267 12.1536 12.2323 12.0075 12.1033 11.8201C11.7469 11.3022 12.077 11.3306 6.25468 11.3167C3.33957 11.3097 0.921266 11.333 0.802707 11.3693ZM24.4324 11.4008C23.5584 11.7228 23.4352 12.9091 24.2133 13.5112C24.4055 13.6599 24.463 13.6614 29.8346 13.6614H35.2616L35.4984 13.4865C35.761 13.2923 35.9961 12.8286 35.9985 12.5001C36.0008 12.1747 35.7509 11.7147 35.4613 11.5114L35.2017 11.3292L29.9577 11.3132C25.5754 11.2999 24.6675 11.3143 24.4324 11.4008ZM2.38877 16.6571C0.779009 17.1055 -0.0670803 19.0402 0.648284 20.6371C1.01852 21.4636 1.50337 21.9001 2.75992 22.5383C3.66051 22.9957 3.83068 23.1804 3.74763 23.6105C3.65467 24.0923 2.98628 24.0719 2.04744 23.5588C1.61364 23.3216 1.37131 23.2334 1.15395 23.2334C0.199924 23.2334 -0.351032 24.3963 0.251469 25.1384C0.350128 25.2599 0.639775 25.4805 0.895177 25.6285C2.93776 26.8124 4.98217 26.4663 5.77228 24.8029C5.95779 24.4123 5.9985 24.2298 6.02726 23.6599C6.10448 22.1301 5.48327 21.2319 3.75143 20.3692C3.00836 19.9991 2.66836 19.7195 2.66836 19.4786C2.66836 19.4219 2.71667 19.2787 2.77567 19.1604C2.95513 18.8008 3.29534 18.8735 3.83933 19.3881C4.34577 19.867 4.9487 19.9209 5.42793 19.5303C5.79767 19.2288 5.94886 18.5149 5.7341 18.0845C5.5827 17.7811 4.91375 17.1603 4.50962 16.9479C3.75952 16.554 3.08916 16.4621 2.38877 16.6571ZM9.84099 16.5884C8.27047 16.8406 7.16799 17.9671 6.76984 19.7262C6.58919 20.5247 6.59137 22.483 6.77371 23.2091C7.26651 25.1708 8.53987 26.3049 10.2629 26.3168C10.9799 26.3218 11.4034 26.2286 11.9377 25.9485C12.6727 25.563 13.4069 24.7218 13.582 24.0645C13.7843 23.3054 13.0212 22.4655 12.2787 22.63C11.9063 22.7125 11.6651 22.8994 11.4185 23.2967C11.1279 23.7647 10.8442 23.9305 10.3332 23.9305C9.64311 23.9305 9.25017 23.5541 9.0314 22.6835C8.89189 22.1283 8.89407 20.7835 9.03541 20.218C9.24173 19.3924 9.70296 18.9453 10.348 18.9456C10.7973 18.9457 11.1015 19.141 11.4271 19.6378C11.8311 20.2546 12.0926 20.4235 12.588 20.3876C13.522 20.32 13.9333 19.4577 13.4747 18.5294C13.2097 17.9927 12.5259 17.2624 12.0341 16.9908C11.3768 16.6276 10.5459 16.4752 9.84099 16.5884ZM17.1894 16.6185C16.0457 16.8174 15.1824 17.4958 14.6592 18.6069C14.3439 19.2763 14.2087 19.8254 14.1361 20.7311C13.8669 24.0918 15.3167 26.3058 17.7955 26.3192C19.9994 26.3311 21.3837 24.7071 21.5615 21.9009C21.644 20.5997 21.3572 19.1617 20.8391 18.2775C20.0962 17.01 18.6688 16.3612 17.1894 16.6185ZM23.3425 16.6222C23.113 16.717 22.8657 16.9598 22.7204 17.2327C22.6173 17.4264 22.6015 17.8715 22.582 21.1319C22.5699 23.1562 22.5799 24.983 22.6042 25.1915C22.686 25.8916 23.145 26.3386 23.772 26.3288C24.4143 26.3188 24.8159 25.9076 24.884 25.1903L24.9246 24.7634L25.7827 25.4926C26.6993 26.2715 26.8045 26.3309 27.2537 26.3243C27.8702 26.3153 28.2763 25.8932 28.3179 25.2181C28.3515 24.6722 28.2337 24.4947 27.319 23.7137C26.9109 23.3653 26.5789 23.0601 26.5811 23.0353C26.5833 23.0106 26.8117 22.8782 27.0888 22.741C27.7288 22.4242 28.2045 21.9358 28.4974 21.2953C28.7111 20.8276 28.7219 20.7618 28.7219 19.9294C28.7219 19.1288 28.7056 19.0188 28.5296 18.6294C28.1278 17.7404 27.584 17.2731 26.5318 16.9122C25.6153 16.5979 23.8006 16.4329 23.3425 16.6222ZM30.5151 16.6222C30.2857 16.717 30.0383 16.9598 29.8931 17.2327C29.79 17.4264 29.7742 17.8715 29.7546 21.1319C29.7425 23.1562 29.7525 24.983 29.7768 25.1915C29.8293 25.6406 30.0361 25.9872 30.3746 26.1933C30.604 26.333 30.7527 26.3446 32.5895 26.3665C34.9911 26.3951 35.2202 26.3718 35.5573 26.0651C36.1563 25.52 36.126 24.6498 35.4918 24.1809C35.2693 24.0165 35.2084 24.0101 33.6619 23.9888L32.0621 23.9667V23.3218V22.6767L32.9938 22.6514C33.8302 22.6286 33.9487 22.609 34.1513 22.4591C34.9196 21.8911 34.8802 20.8115 34.0765 20.4083C33.8227 20.2809 33.6418 20.2573 32.9189 20.2573H32.0621V19.6014V18.9454H33.5629C34.9939 18.9454 35.078 18.9376 35.3699 18.7776C35.7158 18.588 36 18.1232 36 17.7469C36 17.3491 35.7213 16.888 35.3698 16.7043C35.0639 16.5444 35.0015 16.5405 32.8734 16.5449C31.599 16.5476 30.6177 16.5797 30.5151 16.6222ZM18.3003 19.0439C18.6199 19.1823 18.9447 19.5933 19.0955 20.0503C19.278 20.6032 19.2796 22.2269 19.0983 22.8414C18.8085 23.8236 17.8831 24.242 17.135 23.729C16.4754 23.2768 16.2014 21.5185 16.5696 20.1009C16.8085 19.181 17.5587 18.7228 18.3003 19.0439ZM25.9681 19.2243C26.3258 19.3883 26.4521 19.5797 26.4621 19.973C26.4738 20.4384 26.0265 20.7761 25.2586 20.8814L24.8895 20.9321V19.965V18.9979L25.2709 19.0387C25.4808 19.0612 25.7945 19.1447 25.9681 19.2243ZM0.558064 29.3859C0.158787 29.6676 0.0313676 29.9099 0.0313676 30.388C0.0313676 30.8661 0.158787 31.1085 0.558064 31.3902L0.790541 31.5542H17.9981H35.2057L35.4381 31.3902C35.8374 31.1085 35.9648 30.8661 35.9648 30.388C35.9648 29.9099 35.8374 29.6676 35.4381 29.3859L35.2057 29.2219H17.9981H0.790541L0.558064 29.3859ZM8.13517 33.8298C7.77703 34.045 7.56087 34.5085 7.6096 34.9565C7.65039 35.332 7.8143 35.5974 8.15261 35.836L8.38509 36H17.9981H27.6111L27.8436 35.836C28.1819 35.5974 28.3458 35.332 28.3866 34.9565C28.4362 34.5005 28.2183 34.0409 27.8509 33.8269L27.5776 33.6678L17.9885 33.6694L8.39944 33.6711L8.13517 33.8298Z" fill="white"/>
</svg>
