<svg width="35" height="36" viewBox="0 0 35 36" fill="none" xmlns="http://www.w3.org/2000/svg">
<path id="stopwatch" fill-rule="evenodd" clip-rule="evenodd" d="M14.5664 0.165109C14.138 0.359331 14.007 0.488577 13.8071 0.914008C13.5411 1.48015 13.6662 2.10346 14.1371 2.55751C14.4461 2.85545 14.7804 2.96592 15.4952 3.006L16.1326 3.04179V3.37398V3.70617L15.7137 3.7523C14.7056 3.86333 14.0618 4.02718 13.8561 4.22513C13.5927 4.47856 13.5969 4.73424 13.8687 4.99667C14.1213 5.24039 14.1407 5.24145 15.0763 5.06192C15.477 4.98506 16.1572 4.90124 16.5879 4.87565L17.371 4.8291L17.3721 5.45515C17.3733 6.15581 17.4569 6.38631 17.7609 6.52702C18.0078 6.64129 18.2634 6.5889 18.4617 6.3835C18.5893 6.25137 18.6094 6.1364 18.6094 5.54052V4.85061L18.9918 4.85104C20.2759 4.85244 22.5604 5.40079 24.2186 6.10574C25.208 6.52639 25.1569 6.47098 24.9225 6.86772C24.4985 7.58547 24.416 7.78363 24.4643 7.9692C24.5673 8.36531 25.0848 8.57183 25.3982 8.34196C25.4661 8.29217 25.6641 8.01849 25.8383 7.73377C26.0126 7.44905 26.1865 7.20666 26.2249 7.19513C26.3287 7.16397 27.4857 7.98425 28.2334 8.61916C28.5935 8.92505 29.1531 9.46496 29.4769 9.81894C30.0299 10.4234 30.9887 11.6486 30.992 11.7548C30.9928 11.7811 30.7183 11.9632 30.3819 12.1593C30.0456 12.3554 29.7506 12.5658 29.7263 12.6269C29.5631 13.0372 29.8804 13.5012 30.323 13.4994C30.3913 13.499 30.7049 13.3566 31.02 13.1829C31.3351 13.0092 31.6173 12.867 31.6471 12.867C31.7325 12.867 32.2841 14.0765 32.5896 14.9337C33.0435 16.2076 33.3926 17.8927 33.3961 18.8265L33.3974 19.1957H32.7094C32.0997 19.1957 32.0002 19.2137 31.8352 19.3539C31.7327 19.441 31.6287 19.6137 31.604 19.7379C31.5665 19.9266 31.5954 19.9986 31.7806 20.1774C31.9965 20.3857 32.0196 20.3911 32.6997 20.3911H33.3974L33.3969 20.7955C33.396 21.7105 32.9693 23.7001 32.5181 24.8938C32.2185 25.6862 31.7175 26.7199 31.6329 26.7199C31.5957 26.7199 31.3398 26.5928 31.0644 26.4375C30.3613 26.0411 30.1803 26.0172 29.9036 26.2843C29.6747 26.5053 29.6212 26.7597 29.7533 26.9981C29.7925 27.0688 30.0876 27.2754 30.409 27.4573C30.7304 27.6392 30.9934 27.8133 30.9934 27.8443C30.9934 27.9369 30.2098 28.9649 29.6714 29.5786C28.8621 30.501 27.7176 31.4869 26.6237 32.204L26.2065 32.4775L25.8951 31.9523C25.5535 31.376 25.3129 31.15 25.0409 31.15C24.818 31.15 24.4372 31.508 24.4372 31.7176C24.4372 31.8037 24.5877 32.1407 24.7718 32.4666C24.9558 32.7924 25.0929 33.0719 25.0765 33.0877C25.0602 33.1034 24.7212 33.2634 24.3232 33.4431C22.89 34.0902 20.9566 34.59 19.3894 34.7187C18.9972 34.7509 18.6611 34.7628 18.6428 34.745C18.6244 34.7273 18.6094 34.4072 18.6094 34.0336C18.6094 33.4183 18.594 33.341 18.4455 33.2119C18.2022 33.0006 18.0453 32.9688 17.7774 33.0769C17.4649 33.2029 17.371 33.4661 17.371 34.216V34.8L16.9885 34.7637C15.7619 34.6474 15.2393 34.5811 14.7714 34.4827C14.3286 34.3895 14.2169 34.387 14.0457 34.4665C13.6364 34.6564 13.5493 35.1257 13.8665 35.4318C14.1188 35.6754 16.3472 35.9966 17.8081 36C25.83 36.0182 32.7235 30.598 34.3431 22.9988C34.8214 20.755 34.7821 18.4043 34.2267 16.0314C33.7172 13.8546 32.3524 11.2297 30.8307 9.50019C30.5796 9.21476 30.3418 8.9382 30.3022 8.88553C30.2479 8.81338 30.3908 8.634 30.8831 8.1566L31.5361 7.5233L31.9407 7.90978C32.1633 8.12235 32.3775 8.29625 32.4168 8.29625C32.511 8.29625 35 5.88958 35 5.79845C35 5.70661 32.5076 3.30359 32.4124 3.30359C32.3162 3.30359 29.8279 5.70998 29.8279 5.80309C29.8279 5.84268 30.0084 6.04717 30.229 6.25749L30.6302 6.63996L29.9938 7.25715C29.6438 7.59658 29.3219 7.87434 29.2784 7.87434C29.235 7.87434 29.1032 7.77716 28.9855 7.65832C28.8679 7.53948 28.4669 7.22016 28.0947 6.94866C25.8387 5.30361 23.3083 4.24678 20.6082 3.82213L19.8478 3.70251V3.37201V3.04151L20.5216 3.00734C21.7282 2.94616 22.3246 2.44162 22.3246 1.48212C22.3246 1.04368 22.2509 0.856206 21.9477 0.522752C21.4697 -0.00274245 21.5039 0.00175798 18.0266 0.00084383L14.9306 0L14.5664 0.165109ZM20.9988 1.2784C21.1326 1.40758 21.1028 1.67275 20.9453 1.75411C20.8661 1.79504 20.3241 1.82689 19.7069 1.82689H18.6094V2.70588V3.58487H17.9902H17.371V2.70588V1.82689H16.2945C15.4381 1.82689 15.1849 1.80453 15.0561 1.7174C14.8655 1.58851 14.8504 1.45729 15.0086 1.30449C15.1089 1.2078 15.4834 1.19402 18.0172 1.19402C20.1711 1.19402 20.9337 1.21561 20.9988 1.2784ZM32.867 5.35804C33.0785 5.55978 33.2517 5.75654 33.2517 5.79528C33.2517 5.88775 32.5134 6.60859 32.4187 6.60859C32.3229 6.60859 31.5762 5.89591 31.5762 5.80456C31.5762 5.71209 32.3145 4.99125 32.4091 4.99125C32.4493 4.99125 32.6553 5.15629 32.867 5.35804ZM9.15894 8.41369C8.9385 8.45792 8.70219 8.76387 8.70219 9.005C8.70219 9.11364 8.7813 9.29134 8.87796 9.39984L9.05382 9.59716H10.839H12.6242L12.8121 9.4267C13.0711 9.19184 13.0712 8.80712 12.8123 8.57218C12.6257 8.40286 12.6139 8.40166 10.9729 8.39139C10.0646 8.38577 9.24825 8.39575 9.15894 8.41369ZM5.93399 12.6767C5.54878 12.8648 5.48263 13.3505 5.80294 13.6385C5.95738 13.7775 6.04705 13.7811 9.2889 13.7811C12.5448 13.7811 12.6204 13.778 12.8082 13.6354C12.9501 13.5276 13.0002 13.4256 13.0002 13.244C13.0002 12.9104 12.9006 12.7556 12.6266 12.6634C12.2777 12.546 6.17687 12.5581 5.93399 12.6767ZM24.4256 13.7917C19.5827 17.1511 16.8232 19.1161 16.647 19.3309C15.9357 20.1978 16.0266 21.4295 16.8594 22.2097C17.6693 22.9684 19.0914 22.9595 19.8774 22.1908C20.2083 21.8671 25.7749 14.4613 25.982 14.0691C26.1271 13.7943 26.0989 13.6151 25.8731 13.3768C25.596 13.0846 25.3384 13.1585 24.4256 13.7917ZM20.8665 18.9227C19.9016 20.2138 19.0081 21.3413 18.881 21.4284C18.4075 21.7525 17.7765 21.5772 17.5109 21.0477C17.3443 20.7153 17.3687 20.3925 17.5812 20.1206C17.6977 19.9714 22.5525 16.5284 22.6003 16.5611C22.6116 16.5689 21.8314 17.6316 20.8665 18.9227ZM2.75247 16.9092C2.40506 17.1442 2.4291 17.7376 2.7937 17.9259C2.89926 17.9805 4.3825 17.9976 7.83254 17.9842L12.7217 17.9651L12.861 17.7991C13.0595 17.5624 13.0415 17.19 12.8213 16.9775L12.6426 16.8049H7.7747C3.58839 16.8049 2.8852 16.8195 2.75247 16.9092ZM0.202601 21.1822C-0.0163776 21.4171 -0.0492316 21.5685 0.0626615 21.8271C0.130701 21.9843 0.240336 22.0857 0.400672 22.1396C0.731325 22.2509 12.2963 22.2528 12.6266 22.1417C12.9006 22.0496 13.0002 21.8948 13.0002 21.5611C13.0002 21.3796 12.9501 21.2775 12.8082 21.1698C12.6175 21.0249 12.5776 21.024 6.48319 21.024H0.350189L0.202601 21.1822ZM4.22209 25.2221C3.76249 25.3329 3.58424 25.9134 3.91715 26.2154L4.08579 26.3683H8.38457H12.6834L12.8418 26.2056C13.0675 25.9736 13.0541 25.5979 12.8122 25.3785L12.6243 25.208L8.49603 25.1975C6.22553 25.1917 4.30222 25.2027 4.22209 25.2221ZM7.7916 29.4769C7.41804 29.6837 7.34723 30.1297 7.64262 30.4148L7.82139 30.5874H10.2189C12.5339 30.5874 12.6229 30.5824 12.8082 30.4416C12.9473 30.3361 13.0002 30.231 13.0002 30.0607C13.0002 29.404 12.9481 29.3916 10.2174 29.3941C8.63954 29.3956 7.89242 29.4211 7.7916 29.4769Z" fill="white"/>
</svg>
